<svg width="40" height="40" viewBox="0 0 40 40" fill="none" xmlns="http://www.w3.org/2000/svg">
<g clip-path="url(#clip0_1102_19989)">
<path d="M39.3833 7.77778C38.6133 6.45445 37.1967 5.55556 35.5556 5.55556H20V7.77778H39.3833ZM0 27.7778H40V30H0V27.7778ZM20 18.8889H40V21.1111H20V18.8889ZM20 14.4444H40V16.6667H20V14.4444ZM0 23.3333H40V25.5556H0V23.3333ZM4.44444 34.4444H35.5556C37.1967 34.4444 38.6133 33.5456 39.3833 32.2222H0.616667C1.38667 33.5456 2.80333 34.4444 4.44444 34.4444ZM20 10H40V12.2222H20V10Z" fill="#B22334"/>
<path d="M0.0755556 30.7544C0.0944445 30.8578 0.115556 30.9611 0.141111 31.0622C0.17 31.1744 0.205556 31.2822 0.243333 31.3911C0.342222 31.6789 0.462222 31.9567 0.613333 32.2167L0.616667 32.2222H39.3833L39.3856 32.2178C39.5347 31.9558 39.6582 31.6801 39.7544 31.3944C39.8276 31.1859 39.8841 30.9719 39.9233 30.7544C39.9689 30.51 40 30.2589 40 30H0C0 30.2589 0.0311111 30.5089 0.0755556 30.7544ZM0 25.5555H40V27.7778H0V25.5555ZM0 21.1111V23.3333H40V21.1111H20H0ZM20 16.6667H40V18.8889H20V16.6667ZM20 12.2222H40V14.4444H20V12.2222ZM0.142222 8.93777C0.17 8.82444 0.208889 8.71666 0.244444 8.60777C0.205859 8.71632 0.171756 8.82642 0.142222 8.93777ZM20 9.99999H40C40 9.7411 39.9689 9.48999 39.9233 9.24444C39.8844 9.02678 39.8276 8.81271 39.7533 8.60444C39.657 8.31756 39.5331 8.04071 39.3833 7.77777H20V9.99999Z" fill="#EEEEEE"/>
<path d="M20 5.55556H4.44444C3.2657 5.55556 2.13524 6.02381 1.30175 6.8573C0.468253 7.6908 0 8.82126 0 10L0 21.1111H20V5.55556Z" fill="#3C3B6E"/>
<path d="M2.22266 8.58444L2.90932 9.08333L2.6471 9.88888L3.33266 9.3911L4.01932 9.88888L3.7571 9.08333L4.44377 8.58444H3.59488L3.33266 7.77777L3.07155 8.58444H2.22266ZM4.44488 10.8067L5.13155 11.3055L4.86932 12.1111L5.55488 11.6133L6.24155 12.1111L5.97932 11.3055L6.66599 10.8067H5.8171L5.55488 9.99999L5.29377 10.8067H4.44488ZM8.88932 10.8067L9.57599 11.3055L9.31377 12.1111L9.99932 11.6133L10.686 12.1111L10.4238 11.3055L11.1104 10.8067H10.2615L9.99932 9.99999L9.73821 10.8067H8.88932ZM13.3338 10.8067L14.0204 11.3055L13.7582 12.1111L14.4438 11.6133L15.1304 12.1111L14.8682 11.3055L15.5549 10.8067H14.706L14.4438 9.99999L14.1827 10.8067H13.3338ZM4.44488 15.2511L5.13155 15.75L4.86932 16.5555L5.55488 16.0578L6.24155 16.5555L5.97932 15.75L6.66599 15.2511H5.8171L5.55488 14.4444L5.29377 15.2511H4.44488ZM8.88932 15.2511L9.57599 15.75L9.31377 16.5555L9.99932 16.0578L10.686 16.5555L10.4238 15.75L11.1104 15.2511H10.2615L9.99932 14.4444L9.73821 15.2511H8.88932ZM13.3338 15.2511L14.0204 15.75L13.7582 16.5555L14.4438 16.0578L15.1304 16.5555L14.8682 15.75L15.5549 15.2511H14.706L14.4438 14.4444L14.1827 15.2511H13.3338ZM6.6671 8.58444L7.35377 9.08333L7.09155 9.88888L7.7771 9.3911L8.46377 9.88888L8.20155 9.08333L8.88821 8.58444H8.03932L7.7771 7.77777L7.51599 8.58444H6.6671ZM11.1115 8.58444L11.7982 9.08333L11.536 9.88888L12.2215 9.3911L12.9082 9.88888L12.646 9.08333L13.3327 8.58444H12.4838L12.2215 7.77777L11.9604 8.58444H11.1115ZM15.556 8.58444L16.2427 9.08333L15.9804 9.88888L16.666 9.3911L17.3527 9.88888L17.0904 9.08333L17.7771 8.58444H16.9282L16.666 7.77777L16.4049 8.58444H15.556ZM2.22266 13.0289L2.90932 13.5278L2.6471 14.3333L3.33266 13.8355L4.01932 14.3333L3.7571 13.5278L4.44377 13.0289H3.59488L3.33266 12.2222L3.07155 13.0289H2.22266ZM7.09155 14.3333L7.7771 13.8355L8.46377 14.3333L8.20155 13.5278L8.88821 13.0289H8.03932L7.7771 12.2222L7.51599 13.0289H6.6671L7.35377 13.5278L7.09155 14.3333ZM11.1115 13.0289L11.7982 13.5278L11.536 14.3333L12.2215 13.8355L12.9082 14.3333L12.646 13.5278L13.3327 13.0289H12.4838L12.2215 12.2222L11.9604 13.0289H11.1115ZM15.556 13.0289L16.2427 13.5278L15.9804 14.3333L16.666 13.8355L17.3527 14.3333L17.0904 13.5278L17.7771 13.0289H16.9282L16.666 12.2222L16.4049 13.0289H15.556ZM2.22266 17.4733L2.90932 17.9722L2.6471 18.7778L3.33266 18.28L4.01932 18.7778L3.7571 17.9722L4.44377 17.4733H3.59488L3.33266 16.6667L3.07155 17.4733H2.22266ZM7.09155 18.7778L7.7771 18.28L8.46377 18.7778L8.20155 17.9722L8.88821 17.4733H8.03932L7.7771 16.6667L7.51599 17.4733H6.6671L7.35377 17.9722L7.09155 18.7778ZM11.1115 17.4733L11.7982 17.9722L11.536 18.7778L12.2215 18.28L12.9082 18.7778L12.646 17.9722L13.3327 17.4733H12.4838L12.2215 16.6667L11.9604 17.4733H11.1115ZM15.556 17.4733L16.2427 17.9722L15.9804 18.7778L16.666 18.28L17.3527 18.7778L17.0904 17.9722L17.7771 17.4733H16.9282L16.666 16.6667L16.4049 17.4733H15.556Z" fill="white"/>
</g>
<defs>
<clipPath id="clip0_1102_19989">
<rect width="40" height="40" fill="white"/>
</clipPath>
</defs>
</svg>
