<svg width="26" height="26" viewBox="0 0 26 26" fill="none" xmlns="http://www.w3.org/2000/svg">
<g clip-path="url(#clip0_1047_2857)">
<path d="M13 26C20.1797 26 26 20.1797 26 13C26 5.8203 20.1797 0 13 0C5.8203 0 0 5.8203 0 13C0 20.1797 5.8203 26 13 26Z" fill="url(#paint0_linear_1047_2857)"/>
<path d="M20.2169 16.1574C20.4662 16.1574 20.6679 15.9556 20.6679 15.7064V8.48943C20.6679 8.24009 20.4662 8.03839 20.2169 8.03839H16.6084C16.3591 8.03839 16.1574 8.24014 16.1574 8.48943V15.7064C16.1574 15.9556 16.3591 16.1574 16.6084 16.1574H17.9616V17.1426C17.5795 17.2789 17.2788 17.5795 17.1426 17.9616H14.27C14.1338 17.5795 13.8331 17.2788 13.451 17.1426V16.1574H14.8042C15.0535 16.1574 15.2552 15.9556 15.2552 15.7064V6.68517C15.2552 6.43588 15.0535 6.23413 14.8042 6.23413H11.1957C10.9464 6.23413 10.7447 6.43588 10.7447 6.68517V15.7063C10.7447 15.9556 10.9465 16.1573 11.1957 16.1573H12.5489V17.1426C12.1668 17.2788 11.8662 17.5795 11.7299 17.9616H8.85737C8.72107 17.5794 8.42045 17.2788 8.03837 17.1426V16.1573H9.39154C9.64087 16.1573 9.84257 15.9556 9.84257 15.7063V8.48943C9.84257 8.24009 9.64082 8.03839 9.39154 8.03839H5.78307C5.53373 8.03839 5.33203 8.24014 5.33203 8.48943V15.7064C5.33203 15.9556 5.53379 16.1574 5.78307 16.1574H7.13624V17.1426C6.75411 17.2789 6.45348 17.5795 6.31724 17.9616H5.78307C5.53373 17.9616 5.33203 18.1634 5.33203 18.4126C5.33203 18.662 5.53379 18.8637 5.78307 18.8637H6.31724C6.50406 19.3876 7.00004 19.7659 7.58733 19.7659C8.17461 19.7659 8.67059 19.3876 8.85742 18.8637H11.73C11.9168 19.3876 12.4128 19.7659 13.0001 19.7659C13.5873 19.7659 14.0833 19.3876 14.2701 18.8637H17.1427C17.3295 19.3876 17.8255 19.7659 18.4128 19.7659C19.0001 19.7659 19.496 19.3876 19.6829 18.8637H20.217C20.4664 18.8637 20.6681 18.662 20.6681 18.4126C20.6681 18.1634 20.4663 17.9616 20.217 17.9616H19.6829C19.5466 17.5795 19.2459 17.2788 18.8639 17.1426V16.1574H20.2169ZM7.58728 9.84254C7.83636 9.84254 8.03837 10.0445 8.03837 10.2936C8.03837 10.5427 7.83641 10.7446 7.58728 10.7446C7.3382 10.7446 7.13624 10.5427 7.13624 10.2936C7.13619 10.0445 7.3382 9.84254 7.58728 9.84254ZM7.58728 12.5489C7.3382 12.5489 7.13624 12.347 7.13624 12.0979C7.13624 11.8488 7.3382 11.6469 7.58728 11.6469C7.83636 11.6469 8.03837 11.8488 8.03837 12.0979C8.03832 12.347 7.83636 12.5489 7.58728 12.5489ZM12.9999 8.03834C13.249 8.03834 13.451 8.24024 13.451 8.48938C13.451 8.73846 13.249 8.94042 12.9999 8.94042C12.7509 8.94042 12.5489 8.73846 12.5489 8.48938C12.5489 8.24024 12.7509 8.03834 12.9999 8.03834ZM12.9999 10.7447C12.7509 10.7447 12.5489 10.5427 12.5489 10.2936C12.5489 10.0445 12.7509 9.8426 12.9999 9.8426C13.249 9.8426 13.451 10.0445 13.451 10.2936C13.451 10.5427 13.249 10.7447 12.9999 10.7447ZM18.4126 9.84254C18.6617 9.84254 18.8637 10.0445 18.8637 10.2936C18.8637 10.5427 18.6617 10.7446 18.4126 10.7446C18.1635 10.7446 17.9615 10.5427 17.9615 10.2936C17.9616 10.0445 18.1635 9.84254 18.4126 9.84254ZM18.4126 12.5489C18.1635 12.5489 17.9615 12.347 17.9615 12.0979C17.9615 11.8488 18.1635 11.6469 18.4126 11.6469C18.6617 11.6469 18.8637 11.8488 18.8637 12.0979C18.8637 12.347 18.6617 12.5489 18.4126 12.5489Z" fill="url(#paint1_linear_1047_2857)"/>
</g>
<defs>
<linearGradient id="paint0_linear_1047_2857" x1="13" y1="26" x2="13" y2="0" gradientUnits="userSpaceOnUse">
<stop stop-color="#ADDCFF"/>
<stop offset="0.5028" stop-color="#EAF6FF"/>
<stop offset="1" stop-color="#EAF6FF"/>
</linearGradient>
<linearGradient id="paint1_linear_1047_2857" x1="12.9999" y1="19.7658" x2="12.9999" y2="6.23413" gradientUnits="userSpaceOnUse">
<stop stop-color="#00C0FF"/>
<stop offset="1" stop-color="#5558FF"/>
</linearGradient>
<clipPath id="clip0_1047_2857">
<rect width="26" height="26" fill="white"/>
</clipPath>
</defs>
</svg>
