<svg width="30" height="30" viewBox="0 0 30 30" fill="none" xmlns="http://www.w3.org/2000/svg">
<path d="M28.5937 15.4688C28.5943 16.6319 28.234 17.7666 27.5623 18.7162C26.8906 19.6659 25.9407 20.3836 24.8437 20.7703C24.242 20.9856 23.6077 21.0951 22.9687 21.0938H7.03117C5.61366 21.0944 4.2482 20.5597 3.2082 19.5965C2.1682 18.6333 1.53042 17.3128 1.42256 15.8994C1.3147 14.486 1.74473 13.084 2.62654 11.9741C3.50834 10.8643 4.77684 10.1285 6.17805 9.91407C6.12378 9.58083 6.09557 9.24388 6.09367 8.90626C6.09302 7.44272 6.58161 6.02096 7.48177 4.86699C8.38193 3.71302 9.64201 2.89307 11.0617 2.53748C12.4814 2.18188 13.9792 2.31106 15.317 2.90446C16.6549 3.49787 17.7559 4.52146 18.4452 5.81251C19.0762 5.61924 19.7437 5.57651 20.3941 5.68772C21.0446 5.79894 21.66 6.06101 22.1909 6.45293C22.7218 6.84485 23.1535 7.35571 23.4514 7.94456C23.7492 8.53341 23.905 9.18386 23.9062 9.84376C23.9062 9.87188 23.9015 9.90001 23.9015 9.92813C25.2126 10.1475 26.4035 10.8245 27.2625 11.8389C28.1216 12.8533 28.5933 14.1394 28.5937 15.4688Z" fill="#3D9AE2"/>
<path d="M28.5906 15.4688C28.5906 16.9606 27.998 18.3914 26.9431 19.4463C25.8882 20.5012 24.4575 21.0938 22.9656 21.0938H7.02813C6.74406 21.0935 6.46043 21.0715 6.17969 21.0282C10.2063 19.2188 18.325 14.9063 23.3453 7.75317C23.7119 8.38886 23.9043 9.10999 23.9031 9.8438C23.9031 9.87192 23.8984 9.90005 23.8984 9.92817C25.2095 10.1475 26.4004 10.8245 27.2595 11.8389C28.1186 12.8534 28.5902 14.1395 28.5906 15.4688Z" fill="#1E81CE"/>
<path d="M23.9062 18.2812V20.7703C23.3046 20.9856 22.6702 21.095 22.0312 21.0937H7.96875V18.2812L10.3125 16.6265V14.5312H13.2797L15.3984 13.0359C15.5567 12.9261 15.7448 12.8672 15.9375 12.8672C16.1302 12.8672 16.3183 12.9261 16.4766 13.0359L18.5953 14.5312H21.5625V16.6265L23.9062 18.2812Z" fill="#1A6FB0"/>
<path d="M17.6719 13.8797C14.6983 16.3576 11.4411 18.474 7.96875 20.1844V18.2812L10.3125 16.6265V14.5312H13.2797L15.3984 13.0359C15.5567 12.9261 15.7448 12.8672 15.9375 12.8672C16.1302 12.8672 16.3183 12.9261 16.4766 13.0359L17.6719 13.8797Z" fill="#1E81CE"/>
<path d="M22.9688 18.2812L16.9922 21.7969L15 22.9687L13.0078 21.7969L7.03125 18.2812L14.4609 13.0359C14.6192 12.9261 14.8073 12.8672 15 12.8672C15.1927 12.8672 15.3808 12.9261 15.5391 13.0359L22.9688 18.2812Z" fill="#EE8700"/>
<path d="M9.375 14.5312H20.625V22.9688H9.375V14.5312Z" fill="#E6E7E8"/>
<path d="M22.9688 26.7188V27.1875C22.9688 27.3118 22.9194 27.431 22.8315 27.519C22.7435 27.6069 22.6243 27.6562 22.5 27.6562H7.5C7.37568 27.6562 7.25645 27.6069 7.16854 27.519C7.08064 27.431 7.03125 27.3118 7.03125 27.1875V26.7188L13.0078 21.7969L15 22.9688L16.9922 21.7969L22.9688 26.7188Z" fill="#FFA733"/>
<path d="M13.0078 21.7969L7.03125 26.7188V18.2812L13.0078 21.7969Z" fill="#FF9811"/>
<path d="M22.9688 18.2812V26.7188L16.9922 21.7969L22.9688 18.2812Z" fill="#FF9811"/>
<path d="M11.7188 15.9375H18.2812V16.875H11.7188V15.9375Z" fill="#BCBEC0"/>
<path d="M11.7188 17.8125H18.2812V18.75H11.7188V17.8125Z" fill="#BCBEC0"/>
<path d="M12.6562 19.6875H17.3438V20.625H12.6562V19.6875Z" fill="#BCBEC0"/>
<path d="M8.90625 8.90625H7.96875C7.97011 7.66347 8.46441 6.47198 9.34319 5.59319C10.222 4.71441 11.4135 4.22011 12.6562 4.21875V5.15625C11.662 5.15737 10.7089 5.55281 10.0058 6.25583C9.30281 6.95885 8.90737 7.91203 8.90625 8.90625Z" fill="#96C8EF"/>
<path d="M24.5741 18.8573L24.1719 18.0108C24.6518 17.7812 25.0573 17.4209 25.3416 16.9712C25.626 16.5216 25.7776 16.0008 25.7792 15.4688H26.7167C26.7146 16.178 26.5125 16.8722 26.1334 17.4716C25.7544 18.0711 25.2139 18.5514 24.5741 18.8573Z" fill="#96C8EF"/>
</svg>
