<svg width="30" height="30" viewBox="0 0 30 30" fill="none" xmlns="http://www.w3.org/2000/svg">
<g clip-path="url(#clip0_1042_2220)">
<path d="M-8.01086e-05 3.94752C-8.01086e-05 3.2272 0.583868 2.64325 1.30443 2.64325H28.6957C29.4161 2.64325 30 3.2272 30 3.94752V20.904H-8.01086e-05V3.94752Z" fill="#2D3C58"/>
<path d="M30 20.9039V23.5127C30 24.233 29.4161 24.817 28.6957 24.817H1.30443C0.583868 24.817 -8.01086e-05 24.233 -8.01086e-05 23.5127V20.9039H30Z" fill="#D1D8E0"/>
<path d="M18.9107 28.078V24.817H11.0846V28.078C11.0956 28.6001 10.893 29.1043 10.5238 29.4738C10.1543 29.843 9.65015 30.0456 9.12806 30.0346H20.8672C20.3449 30.0456 19.8407 29.843 19.4714 29.4738C19.102 29.1043 18.8994 28.6001 18.9107 28.078Z" fill="#A5B1C2"/>
<path d="M18.3906 14.3824H11.608C12.2863 17.1149 13.5516 18.9474 14.9994 18.9474C16.4472 18.9474 17.7123 17.1149 18.3906 14.3824Z" fill="#0774FF"/>
<path d="M11.0878 9.81708H5.87021C5.86615 11.4335 6.29629 13.0215 7.11597 14.4149L7.17472 14.3824H11.6094C11.2535 12.8868 11.0784 11.3542 11.0878 9.81708Z" fill="#0774FF"/>
<path d="M18.3936 14.3824H22.8285L22.887 14.4149C23.7067 13.0215 24.1371 11.4335 24.1328 9.81708H18.9155C18.9248 11.3542 18.7495 12.8868 18.3936 14.3824Z" fill="#0774FF"/>
<path d="M11.0876 9.81707H18.9137C18.923 8.27994 18.7477 6.74734 18.3919 5.25177H11.6092C11.2534 6.74734 11.0783 8.27994 11.0876 9.81707Z" fill="#0774FF"/>
<path d="M15 0.686711C11.7514 0.683368 8.74711 2.41061 7.11516 5.21929L7.17391 5.25177H11.6086C12.2869 2.51928 13.5522 0.686711 15 0.686711Z" fill="#0774FF"/>
<path d="M22.8906 5.21929C21.2587 2.41061 18.2544 0.683368 15.006 0.686711C16.4538 0.686711 17.7189 2.51928 18.3972 5.25177H22.8321L22.8906 5.21929Z" fill="#0774FF"/>
<path d="M11.6086 14.3824H7.17391L7.11516 14.4149C8.74711 17.2235 11.7514 18.9508 15 18.9474C13.5522 18.9474 12.2869 17.1149 11.6086 14.3824Z" fill="#0774FF"/>
<path d="M22.8243 14.3824H18.3894C17.7111 17.1149 16.446 18.9474 14.9982 18.9474C18.2466 18.9508 21.2509 17.2235 22.8828 14.4149L22.8243 14.3824Z" fill="#0774FF"/>
<path d="M22.8285 5.25178H18.3936C18.7495 6.74735 18.9248 8.27995 18.9155 9.81708H24.1328C24.1371 8.20065 23.7067 6.61265 22.887 5.2193L22.8285 5.25178Z" fill="#0774FF"/>
<path d="M5.87021 9.81708H11.0878C11.0784 8.27995 11.2535 6.74735 11.6094 5.25178H7.17472L7.11597 5.2193C6.29629 6.61265 5.86615 8.20065 5.87021 9.81708Z" fill="#0774FF"/>
<path d="M18.9137 9.81708H11.0876C11.0783 11.3542 11.2534 12.8868 11.6092 14.3824H18.3919C18.7477 12.8868 18.923 11.3542 18.9137 9.81708Z" fill="#0774FF"/>
<path d="M11.608 5.25176H18.3906C17.7123 2.51927 16.4472 0.686707 14.9994 0.686707C13.5516 0.686707 12.2863 2.51927 11.608 5.25176Z" fill="#0774FF"/>
<path d="M23.4469 14.743C21.2195 18.5582 16.7115 20.407 12.4469 19.2548C8.18209 18.1025 5.21889 14.2348 5.21602 9.81711C5.2134 8.08557 5.6741 6.38483 6.55038 4.89117C8.7775 1.07605 13.2855 -0.772759 17.5503 0.379373C21.8149 1.53174 24.7784 5.39941 24.7812 9.81711C24.7839 11.5486 24.3232 13.2494 23.4469 14.743ZM23.4469 10.4694H19.5429C19.5138 11.5639 19.396 12.6544 19.1913 13.7302H22.5142C23.0444 12.7182 23.3628 11.6086 23.4495 10.4694H23.4469ZM14.9986 1.33877C14.0739 1.33877 13.1001 2.61963 12.4694 4.5998H17.5276C16.8964 2.61963 15.9234 1.33877 14.9986 1.33877ZM12.1355 5.90406C11.9134 6.97786 11.7866 8.06885 11.756 9.16485H18.2413C18.2102 8.06885 18.0834 6.97786 17.8615 5.90406H12.1355ZM11.756 10.4694C11.7868 11.5651 11.9139 12.6564 12.1355 13.7302H17.8615C18.0836 12.6564 18.2107 11.5654 18.2413 10.4694H11.756ZM14.9986 18.2955C15.9234 18.2955 16.8971 17.0146 17.5276 15.0344H12.4694C13.1006 17.0146 14.0739 18.2955 14.9986 18.2955ZM21.6762 15.0344H18.8902C18.6256 16.0361 18.2074 16.9905 17.6509 17.8644C19.242 17.338 20.6423 16.3535 21.6762 15.0344ZM12.3469 17.8648C11.7904 16.9909 11.3724 16.0361 11.1078 15.0344H8.32038C9.35452 16.354 10.7553 17.3387 12.3469 17.8648ZM7.48351 13.7302H10.8038C10.5984 12.6544 10.4806 11.5639 10.4515 10.4694H6.54776C6.63445 11.6086 6.95306 12.7182 7.48351 13.7302ZM6.54776 9.16485H10.4515C10.4809 8.07028 10.5984 6.97977 10.803 5.90406H7.48279C6.95258 6.916 6.63445 8.02562 6.54776 9.16485ZM8.32085 4.5998H11.1071C11.3717 3.59813 11.7897 2.64375 12.3461 1.76986C10.755 2.29625 9.35476 3.28072 8.32085 4.5998ZM17.6471 1.76938C18.2047 2.64303 18.6241 3.59789 18.8902 4.5998H21.6769C20.6427 3.28024 19.242 2.29553 17.6504 1.76938H17.6471ZM22.5135 5.90406H19.1933C19.3987 6.97977 19.5164 8.07028 19.5455 9.16485H23.4495C23.3626 8.02562 23.0442 6.916 22.5135 5.90406Z" fill="white"/>
<path d="M20.8672 28.73H9.12806V30.0345H20.8672V28.73Z" fill="white"/>
</g>
<defs>
<clipPath id="clip0_1042_2220">
<rect width="30" height="30" fill="white" transform="matrix(-1 0 0 1 30 0)"/>
</clipPath>
</defs>
</svg>
